<svg xmlns="http://www.w3.org/2000/svg" xmlns:xlink="http://www.w3.org/1999/xlink" width="69" zoomAndPan="magnify" viewBox="0 0 51.75 49.499998" height="66" preserveAspectRatio="xMidYMid meet" version="1.0"><defs><g/><clipPath id="02aace1e1a"><path d="M 7.339844 0 L 43.191406 0 L 43.191406 35.851562 L 7.339844 35.851562 Z M 7.339844 0 " clip-rule="nonzero"/></clipPath><clipPath id="e99af0a83e"><path d="M 25.265625 0 C 15.367188 0 7.339844 8.027344 7.339844 17.925781 C 7.339844 27.828125 15.367188 35.851562 25.265625 35.851562 C 35.167969 35.851562 43.191406 27.828125 43.191406 17.925781 C 43.191406 8.027344 35.167969 0 25.265625 0 Z M 25.265625 0 " clip-rule="nonzero"/></clipPath><linearGradient x1="-0.00000214338" gradientTransform="matrix(0.140051, 0, 0, 0.140051, 7.339378, -0)" y1="0" x2="255.999986" gradientUnits="userSpaceOnUse" y2="0" id="161d105d28"><stop stop-opacity="1" stop-color="rgb(31.799316%, 43.899536%, 100%)" offset="0"/><stop stop-opacity="1" stop-color="rgb(32.064819%, 43.884277%, 99.908447%)" offset="0.00390625"/><stop stop-opacity="1" stop-color="rgb(32.331848%, 43.869019%, 99.81842%)" offset="0.0078125"/><stop stop-opacity="1" stop-color="rgb(32.597351%, 43.85376%, 99.728394%)" offset="0.0117188"/><stop stop-opacity="1" stop-color="rgb(32.86438%, 43.838501%, 99.638367%)" offset="0.015625"/><stop stop-opacity="1" stop-color="rgb(33.129883%, 43.823242%, 99.54834%)" offset="0.0195312"/><stop stop-opacity="1" stop-color="rgb(33.396912%, 43.807983%, 99.458313%)" offset="0.0234375"/><stop stop-opacity="1" stop-color="rgb(33.66394%, 43.792725%, 99.36676%)" offset="0.0273438"/><stop stop-opacity="1" stop-color="rgb(33.930969%, 43.777466%, 99.276733%)" offset="0.03125"/><stop stop-opacity="1" stop-color="rgb(34.196472%, 43.762207%, 99.186707%)" offset="0.0351563"/><stop stop-opacity="1" stop-color="rgb(34.463501%, 43.746948%, 99.09668%)" offset="0.0390625"/><stop stop-opacity="1" stop-color="rgb(34.729004%, 43.731689%, 99.006653%)" offset="0.0429688"/><stop stop-opacity="1" stop-color="rgb(34.996033%, 43.716431%, 98.916626%)" offset="0.046875"/><stop stop-opacity="1" stop-color="rgb(35.261536%, 43.701172%, 98.826599%)" offset="0.0507812"/><stop stop-opacity="1" stop-color="rgb(35.528564%, 43.685913%, 98.736572%)" offset="0.0546875"/><stop stop-opacity="1" stop-color="rgb(35.794067%, 43.670654%, 98.64502%)" offset="0.0585938"/><stop stop-opacity="1" stop-color="rgb(36.061096%, 43.655396%, 98.554993%)" offset="0.0625"/><stop stop-opacity="1" stop-color="rgb(36.328125%, 43.640137%, 98.464966%)" offset="0.0664062"/><stop stop-opacity="1" stop-color="rgb(36.595154%, 43.624878%, 98.374939%)" offset="0.0703125"/><stop stop-opacity="1" stop-color="rgb(36.860657%, 43.609619%, 98.284912%)" offset="0.0742188"/><stop stop-opacity="1" stop-color="rgb(37.127686%, 43.59436%, 98.194885%)" offset="0.078125"/><stop stop-opacity="1" stop-color="rgb(37.393188%, 43.579102%, 98.104858%)" offset="0.0820313"/><stop stop-opacity="1" stop-color="rgb(37.660217%, 43.563843%, 98.014832%)" offset="0.0859375"/><stop stop-opacity="1" stop-color="rgb(37.92572%, 43.548584%, 97.923279%)" offset="0.0898438"/><stop stop-opacity="1" stop-color="rgb(38.192749%, 43.533325%, 97.833252%)" offset="0.09375"/><stop stop-opacity="1" stop-color="rgb(38.458252%, 43.518066%, 97.743225%)" offset="0.0976563"/><stop stop-opacity="1" stop-color="rgb(38.725281%, 43.502808%, 97.653198%)" offset="0.101562"/><stop stop-opacity="1" stop-color="rgb(38.99231%, 43.487549%, 97.563171%)" offset="0.105469"/><stop stop-opacity="1" stop-color="rgb(39.259338%, 43.47229%, 97.473145%)" offset="0.109375"/><stop stop-opacity="1" stop-color="rgb(39.524841%, 43.457031%, 97.381592%)" offset="0.113281"/><stop stop-opacity="1" stop-color="rgb(39.79187%, 43.441772%, 97.291565%)" offset="0.117188"/><stop stop-opacity="1" stop-color="rgb(40.057373%, 43.426514%, 97.201538%)" offset="0.121094"/><stop stop-opacity="1" stop-color="rgb(40.324402%, 43.411255%, 97.111511%)" offset="0.125"/><stop stop-opacity="1" stop-color="rgb(40.589905%, 43.395996%, 97.021484%)" offset="0.128906"/><stop stop-opacity="1" stop-color="rgb(40.856934%, 43.380737%, 96.931458%)" offset="0.132812"/><stop stop-opacity="1" stop-color="rgb(41.122437%, 43.365479%, 96.841431%)" offset="0.136719"/><stop stop-opacity="1" stop-color="rgb(41.389465%, 43.35022%, 96.751404%)" offset="0.140625"/><stop stop-opacity="1" stop-color="rgb(41.654968%, 43.334961%, 96.659851%)" offset="0.144531"/><stop stop-opacity="1" stop-color="rgb(41.921997%, 43.319702%, 96.569824%)" offset="0.148438"/><stop stop-opacity="1" stop-color="rgb(42.189026%, 43.304443%, 96.479797%)" offset="0.152344"/><stop stop-opacity="1" stop-color="rgb(42.456055%, 43.289185%, 96.389771%)" offset="0.15625"/><stop stop-opacity="1" stop-color="rgb(42.721558%, 43.273926%, 96.299744%)" offset="0.160156"/><stop stop-opacity="1" stop-color="rgb(42.988586%, 43.258667%, 96.209717%)" offset="0.164063"/><stop stop-opacity="1" stop-color="rgb(43.254089%, 43.243408%, 96.11969%)" offset="0.167969"/><stop stop-opacity="1" stop-color="rgb(43.521118%, 43.229675%, 96.029663%)" offset="0.171875"/><stop stop-opacity="1" stop-color="rgb(43.786621%, 43.214417%, 95.93811%)" offset="0.175781"/><stop stop-opacity="1" stop-color="rgb(44.05365%, 43.199158%, 95.848083%)" offset="0.179688"/><stop stop-opacity="1" stop-color="rgb(44.319153%, 43.183899%, 95.758057%)" offset="0.183594"/><stop stop-opacity="1" stop-color="rgb(44.586182%, 43.16864%, 95.66803%)" offset="0.1875"/><stop stop-opacity="1" stop-color="rgb(44.85321%, 43.153381%, 95.578003%)" offset="0.191406"/><stop stop-opacity="1" stop-color="rgb(45.120239%, 43.138123%, 95.487976%)" offset="0.195313"/><stop stop-opacity="1" stop-color="rgb(45.385742%, 43.122864%, 95.396423%)" offset="0.199219"/><stop stop-opacity="1" stop-color="rgb(45.652771%, 43.107605%, 95.306396%)" offset="0.203125"/><stop stop-opacity="1" stop-color="rgb(45.918274%, 43.092346%, 95.21637%)" offset="0.207031"/><stop stop-opacity="1" stop-color="rgb(46.185303%, 43.077087%, 95.126343%)" offset="0.210938"/><stop stop-opacity="1" stop-color="rgb(46.450806%, 43.061829%, 95.036316%)" offset="0.214844"/><stop stop-opacity="1" stop-color="rgb(46.717834%, 43.04657%, 94.946289%)" offset="0.21875"/><stop stop-opacity="1" stop-color="rgb(46.983337%, 43.031311%, 94.856262%)" offset="0.222656"/><stop stop-opacity="1" stop-color="rgb(47.250366%, 43.016052%, 94.766235%)" offset="0.226563"/><stop stop-opacity="1" stop-color="rgb(47.515869%, 43.000793%, 94.674683%)" offset="0.230469"/><stop stop-opacity="1" stop-color="rgb(47.782898%, 42.985535%, 94.584656%)" offset="0.234375"/><stop stop-opacity="1" stop-color="rgb(48.049927%, 42.970276%, 94.494629%)" offset="0.238281"/><stop stop-opacity="1" stop-color="rgb(48.316956%, 42.955017%, 94.404602%)" offset="0.242188"/><stop stop-opacity="1" stop-color="rgb(48.582458%, 42.939758%, 94.314575%)" offset="0.246094"/><stop stop-opacity="1" stop-color="rgb(48.849487%, 42.9245%, 94.224548%)" offset="0.25"/><stop stop-opacity="1" stop-color="rgb(49.11499%, 42.909241%, 94.134521%)" offset="0.253906"/><stop stop-opacity="1" stop-color="rgb(49.382019%, 42.893982%, 94.044495%)" offset="0.257813"/><stop stop-opacity="1" stop-color="rgb(49.647522%, 42.878723%, 93.952942%)" offset="0.261719"/><stop stop-opacity="1" stop-color="rgb(49.914551%, 42.863464%, 93.862915%)" offset="0.265625"/><stop stop-opacity="1" stop-color="rgb(50.180054%, 42.848206%, 93.772888%)" offset="0.269531"/><stop stop-opacity="1" stop-color="rgb(50.447083%, 42.832947%, 93.682861%)" offset="0.273438"/><stop stop-opacity="1" stop-color="rgb(50.714111%, 42.817688%, 93.592834%)" offset="0.277344"/><stop stop-opacity="1" stop-color="rgb(50.98114%, 42.802429%, 93.502808%)" offset="0.28125"/><stop stop-opacity="1" stop-color="rgb(51.246643%, 42.78717%, 93.411255%)" offset="0.285156"/><stop stop-opacity="1" stop-color="rgb(51.513672%, 42.771912%, 93.321228%)" offset="0.289062"/><stop stop-opacity="1" stop-color="rgb(51.779175%, 42.756653%, 93.231201%)" offset="0.292969"/><stop stop-opacity="1" stop-color="rgb(52.046204%, 42.741394%, 93.141174%)" offset="0.296875"/><stop stop-opacity="1" stop-color="rgb(52.311707%, 42.726135%, 93.051147%)" offset="0.300781"/><stop stop-opacity="1" stop-color="rgb(52.578735%, 42.710876%, 92.961121%)" offset="0.304688"/><stop stop-opacity="1" stop-color="rgb(52.844238%, 42.695618%, 92.871094%)" offset="0.308594"/><stop stop-opacity="1" stop-color="rgb(53.111267%, 42.680359%, 92.781067%)" offset="0.3125"/><stop stop-opacity="1" stop-color="rgb(53.37677%, 42.6651%, 92.689514%)" offset="0.316406"/><stop stop-opacity="1" stop-color="rgb(53.643799%, 42.649841%, 92.599487%)" offset="0.320312"/><stop stop-opacity="1" stop-color="rgb(53.910828%, 42.634583%, 92.50946%)" offset="0.324219"/><stop stop-opacity="1" stop-color="rgb(54.177856%, 42.619324%, 92.419434%)" offset="0.328125"/><stop stop-opacity="1" stop-color="rgb(54.443359%, 42.604065%, 92.329407%)" offset="0.332031"/><stop stop-opacity="1" stop-color="rgb(54.710388%, 42.588806%, 92.23938%)" offset="0.335938"/><stop stop-opacity="1" stop-color="rgb(54.975891%, 42.573547%, 92.149353%)" offset="0.339844"/><stop stop-opacity="1" stop-color="rgb(55.24292%, 42.558289%, 92.059326%)" offset="0.34375"/><stop stop-opacity="1" stop-color="rgb(55.508423%, 42.54303%, 91.967773%)" offset="0.347656"/><stop stop-opacity="1" stop-color="rgb(55.775452%, 42.527771%, 91.877747%)" offset="0.351563"/><stop stop-opacity="1" stop-color="rgb(56.040955%, 42.512512%, 91.78772%)" offset="0.355469"/><stop stop-opacity="1" stop-color="rgb(56.307983%, 42.497253%, 91.697693%)" offset="0.359375"/><stop stop-opacity="1" stop-color="rgb(56.575012%, 42.481995%, 91.607666%)" offset="0.363281"/><stop stop-opacity="1" stop-color="rgb(56.842041%, 42.466736%, 91.517639%)" offset="0.367188"/><stop stop-opacity="1" stop-color="rgb(57.107544%, 42.451477%, 91.426086%)" offset="0.371094"/><stop stop-opacity="1" stop-color="rgb(57.374573%, 42.436218%, 91.33606%)" offset="0.375"/><stop stop-opacity="1" stop-color="rgb(57.640076%, 42.420959%, 91.246033%)" offset="0.378906"/><stop stop-opacity="1" stop-color="rgb(57.907104%, 42.405701%, 91.156006%)" offset="0.382813"/><stop stop-opacity="1" stop-color="rgb(58.172607%, 42.390442%, 91.065979%)" offset="0.386719"/><stop stop-opacity="1" stop-color="rgb(58.439636%, 42.375183%, 90.975952%)" offset="0.390625"/><stop stop-opacity="1" stop-color="rgb(58.705139%, 42.359924%, 90.885925%)" offset="0.394531"/><stop stop-opacity="1" stop-color="rgb(58.972168%, 42.344666%, 90.795898%)" offset="0.398438"/><stop stop-opacity="1" stop-color="rgb(59.239197%, 42.329407%, 90.704346%)" offset="0.402344"/><stop stop-opacity="1" stop-color="rgb(59.506226%, 42.314148%, 90.614319%)" offset="0.40625"/><stop stop-opacity="1" stop-color="rgb(59.771729%, 42.298889%, 90.524292%)" offset="0.410156"/><stop stop-opacity="1" stop-color="rgb(60.038757%, 42.285156%, 90.434265%)" offset="0.414063"/><stop stop-opacity="1" stop-color="rgb(60.30426%, 42.269897%, 90.344238%)" offset="0.417969"/><stop stop-opacity="1" stop-color="rgb(60.571289%, 42.254639%, 90.254211%)" offset="0.421875"/><stop stop-opacity="1" stop-color="rgb(60.836792%, 42.23938%, 90.164185%)" offset="0.425781"/><stop stop-opacity="1" stop-color="rgb(61.103821%, 42.224121%, 90.074158%)" offset="0.429688"/><stop stop-opacity="1" stop-color="rgb(61.369324%, 42.208862%, 89.982605%)" offset="0.433594"/><stop stop-opacity="1" stop-color="rgb(61.636353%, 42.193604%, 89.892578%)" offset="0.4375"/><stop stop-opacity="1" stop-color="rgb(61.901855%, 42.178345%, 89.802551%)" offset="0.441406"/><stop stop-opacity="1" stop-color="rgb(62.168884%, 42.163086%, 89.712524%)" offset="0.445312"/><stop stop-opacity="1" stop-color="rgb(62.435913%, 42.147827%, 89.622498%)" offset="0.449219"/><stop stop-opacity="1" stop-color="rgb(62.702942%, 42.132568%, 89.532471%)" offset="0.453125"/><stop stop-opacity="1" stop-color="rgb(62.968445%, 42.11731%, 89.440918%)" offset="0.457031"/><stop stop-opacity="1" stop-color="rgb(63.235474%, 42.102051%, 89.350891%)" offset="0.460938"/><stop stop-opacity="1" stop-color="rgb(63.500977%, 42.086792%, 89.260864%)" offset="0.464844"/><stop stop-opacity="1" stop-color="rgb(63.768005%, 42.071533%, 89.170837%)" offset="0.46875"/><stop stop-opacity="1" stop-color="rgb(64.033508%, 42.056274%, 89.080811%)" offset="0.472656"/><stop stop-opacity="1" stop-color="rgb(64.300537%, 42.041016%, 88.990784%)" offset="0.476563"/><stop stop-opacity="1" stop-color="rgb(64.56604%, 42.025757%, 88.900757%)" offset="0.480469"/><stop stop-opacity="1" stop-color="rgb(64.833069%, 42.010498%, 88.81073%)" offset="0.484375"/><stop stop-opacity="1" stop-color="rgb(65.100098%, 41.995239%, 88.719177%)" offset="0.488281"/><stop stop-opacity="1" stop-color="rgb(65.367126%, 41.97998%, 88.62915%)" offset="0.492188"/><stop stop-opacity="1" stop-color="rgb(65.632629%, 41.964722%, 88.539124%)" offset="0.496094"/><stop stop-opacity="1" stop-color="rgb(65.899658%, 41.949463%, 88.449097%)" offset="0.5"/><stop stop-opacity="1" stop-color="rgb(66.165161%, 41.934204%, 88.35907%)" offset="0.503906"/><stop stop-opacity="1" stop-color="rgb(66.43219%, 41.918945%, 88.269043%)" offset="0.507812"/><stop stop-opacity="1" stop-color="rgb(66.697693%, 41.903687%, 88.179016%)" offset="0.511719"/><stop stop-opacity="1" stop-color="rgb(66.964722%, 41.888428%, 88.088989%)" offset="0.515625"/><stop stop-opacity="1" stop-color="rgb(67.230225%, 41.873169%, 87.997437%)" offset="0.519531"/><stop stop-opacity="1" stop-color="rgb(67.497253%, 41.85791%, 87.90741%)" offset="0.523438"/><stop stop-opacity="1" stop-color="rgb(67.762756%, 41.842651%, 87.817383%)" offset="0.527344"/><stop stop-opacity="1" stop-color="rgb(68.029785%, 41.827393%, 87.727356%)" offset="0.53125"/><stop stop-opacity="1" stop-color="rgb(68.296814%, 41.812134%, 87.637329%)" offset="0.535156"/><stop stop-opacity="1" stop-color="rgb(68.563843%, 41.796875%, 87.547302%)" offset="0.539062"/><stop stop-opacity="1" stop-color="rgb(68.829346%, 41.781616%, 87.45575%)" offset="0.542969"/><stop stop-opacity="1" stop-color="rgb(69.096375%, 41.766357%, 87.365723%)" offset="0.546875"/><stop stop-opacity="1" stop-color="rgb(69.361877%, 41.751099%, 87.275696%)" offset="0.550781"/><stop stop-opacity="1" stop-color="rgb(69.628906%, 41.73584%, 87.185669%)" offset="0.554688"/><stop stop-opacity="1" stop-color="rgb(69.894409%, 41.720581%, 87.095642%)" offset="0.558594"/><stop stop-opacity="1" stop-color="rgb(70.161438%, 41.705322%, 87.005615%)" offset="0.5625"/><stop stop-opacity="1" stop-color="rgb(70.426941%, 41.690063%, 86.915588%)" offset="0.566406"/><stop stop-opacity="1" stop-color="rgb(70.69397%, 41.674805%, 86.825562%)" offset="0.570313"/><stop stop-opacity="1" stop-color="rgb(70.960999%, 41.659546%, 86.734009%)" offset="0.574219"/><stop stop-opacity="1" stop-color="rgb(71.228027%, 41.644287%, 86.643982%)" offset="0.578125"/><stop stop-opacity="1" stop-color="rgb(71.49353%, 41.629028%, 86.553955%)" offset="0.582031"/><stop stop-opacity="1" stop-color="rgb(71.760559%, 41.61377%, 86.463928%)" offset="0.585938"/><stop stop-opacity="1" stop-color="rgb(72.026062%, 41.598511%, 86.373901%)" offset="0.589844"/><stop stop-opacity="1" stop-color="rgb(72.293091%, 41.583252%, 86.283875%)" offset="0.59375"/><stop stop-opacity="1" stop-color="rgb(72.558594%, 41.567993%, 86.193848%)" offset="0.597656"/><stop stop-opacity="1" stop-color="rgb(72.825623%, 41.552734%, 86.103821%)" offset="0.601562"/><stop stop-opacity="1" stop-color="rgb(73.091125%, 41.537476%, 86.012268%)" offset="0.605469"/><stop stop-opacity="1" stop-color="rgb(73.358154%, 41.522217%, 85.922241%)" offset="0.609375"/><stop stop-opacity="1" stop-color="rgb(73.623657%, 41.506958%, 85.832214%)" offset="0.613281"/><stop stop-opacity="1" stop-color="rgb(73.890686%, 41.491699%, 85.742188%)" offset="0.617188"/><stop stop-opacity="1" stop-color="rgb(74.157715%, 41.47644%, 85.652161%)" offset="0.621094"/><stop stop-opacity="1" stop-color="rgb(74.424744%, 41.461182%, 85.562134%)" offset="0.625"/><stop stop-opacity="1" stop-color="rgb(74.690247%, 41.445923%, 85.470581%)" offset="0.628906"/><stop stop-opacity="1" stop-color="rgb(74.957275%, 41.430664%, 85.380554%)" offset="0.632812"/><stop stop-opacity="1" stop-color="rgb(75.222778%, 41.415405%, 85.290527%)" offset="0.636719"/><stop stop-opacity="1" stop-color="rgb(75.489807%, 41.400146%, 85.2005%)" offset="0.640625"/><stop stop-opacity="1" stop-color="rgb(75.75531%, 41.384888%, 85.110474%)" offset="0.644531"/><stop stop-opacity="1" stop-color="rgb(76.022339%, 41.369629%, 85.020447%)" offset="0.648438"/><stop stop-opacity="1" stop-color="rgb(76.287842%, 41.35437%, 84.93042%)" offset="0.652344"/><stop stop-opacity="1" stop-color="rgb(76.554871%, 41.339111%, 84.840393%)" offset="0.65625"/><stop stop-opacity="1" stop-color="rgb(76.821899%, 41.323853%, 84.74884%)" offset="0.660156"/><stop stop-opacity="1" stop-color="rgb(77.088928%, 41.31012%, 84.658813%)" offset="0.664063"/><stop stop-opacity="1" stop-color="rgb(77.354431%, 41.294861%, 84.568787%)" offset="0.667969"/><stop stop-opacity="1" stop-color="rgb(77.62146%, 41.279602%, 84.47876%)" offset="0.671875"/><stop stop-opacity="1" stop-color="rgb(77.886963%, 41.264343%, 84.388733%)" offset="0.675781"/><stop stop-opacity="1" stop-color="rgb(78.153992%, 41.249084%, 84.298706%)" offset="0.679688"/><stop stop-opacity="1" stop-color="rgb(78.419495%, 41.233826%, 84.208679%)" offset="0.683594"/><stop stop-opacity="1" stop-color="rgb(78.686523%, 41.218567%, 84.118652%)" offset="0.6875"/><stop stop-opacity="1" stop-color="rgb(78.952026%, 41.203308%, 84.0271%)" offset="0.691406"/><stop stop-opacity="1" stop-color="rgb(79.219055%, 41.188049%, 83.937073%)" offset="0.695312"/><stop stop-opacity="1" stop-color="rgb(79.486084%, 41.172791%, 83.847046%)" offset="0.699219"/><stop stop-opacity="1" stop-color="rgb(79.753113%, 41.157532%, 83.757019%)" offset="0.703125"/><stop stop-opacity="1" stop-color="rgb(80.018616%, 41.142273%, 83.666992%)" offset="0.707031"/><stop stop-opacity="1" stop-color="rgb(80.285645%, 41.127014%, 83.576965%)" offset="0.710938"/><stop stop-opacity="1" stop-color="rgb(80.551147%, 41.111755%, 83.485413%)" offset="0.714844"/><stop stop-opacity="1" stop-color="rgb(80.818176%, 41.096497%, 83.395386%)" offset="0.71875"/><stop stop-opacity="1" stop-color="rgb(81.083679%, 41.081238%, 83.305359%)" offset="0.722656"/><stop stop-opacity="1" stop-color="rgb(81.350708%, 41.065979%, 83.215332%)" offset="0.726562"/><stop stop-opacity="1" stop-color="rgb(81.616211%, 41.05072%, 83.125305%)" offset="0.730469"/><stop stop-opacity="1" stop-color="rgb(81.88324%, 41.035461%, 83.035278%)" offset="0.734375"/><stop stop-opacity="1" stop-color="rgb(82.148743%, 41.020203%, 82.945251%)" offset="0.738281"/><stop stop-opacity="1" stop-color="rgb(82.415771%, 41.004944%, 82.855225%)" offset="0.742188"/><stop stop-opacity="1" stop-color="rgb(82.6828%, 40.989685%, 82.763672%)" offset="0.746094"/><stop stop-opacity="1" stop-color="rgb(82.949829%, 40.974426%, 82.673645%)" offset="0.75"/><stop stop-opacity="1" stop-color="rgb(83.215332%, 40.959167%, 82.583618%)" offset="0.753906"/><stop stop-opacity="1" stop-color="rgb(83.482361%, 40.943909%, 82.493591%)" offset="0.757813"/><stop stop-opacity="1" stop-color="rgb(83.747864%, 40.92865%, 82.403564%)" offset="0.761719"/><stop stop-opacity="1" stop-color="rgb(84.014893%, 40.913391%, 82.313538%)" offset="0.765625"/><stop stop-opacity="1" stop-color="rgb(84.280396%, 40.898132%, 82.223511%)" offset="0.769531"/><stop stop-opacity="1" stop-color="rgb(84.547424%, 40.882874%, 82.133484%)" offset="0.773437"/><stop stop-opacity="1" stop-color="rgb(84.812927%, 40.867615%, 82.041931%)" offset="0.777344"/><stop stop-opacity="1" stop-color="rgb(85.079956%, 40.852356%, 81.951904%)" offset="0.78125"/><stop stop-opacity="1" stop-color="rgb(85.346985%, 40.837097%, 81.861877%)" offset="0.785156"/><stop stop-opacity="1" stop-color="rgb(85.614014%, 40.821838%, 81.771851%)" offset="0.789062"/><stop stop-opacity="1" stop-color="rgb(85.879517%, 40.80658%, 81.681824%)" offset="0.792969"/><stop stop-opacity="1" stop-color="rgb(86.146545%, 40.791321%, 81.591797%)" offset="0.796875"/><stop stop-opacity="1" stop-color="rgb(86.412048%, 40.776062%, 81.500244%)" offset="0.800781"/><stop stop-opacity="1" stop-color="rgb(86.679077%, 40.760803%, 81.410217%)" offset="0.804688"/><stop stop-opacity="1" stop-color="rgb(86.94458%, 40.745544%, 81.32019%)" offset="0.808594"/><stop stop-opacity="1" stop-color="rgb(87.211609%, 40.730286%, 81.230164%)" offset="0.8125"/><stop stop-opacity="1" stop-color="rgb(87.477112%, 40.715027%, 81.140137%)" offset="0.816406"/><stop stop-opacity="1" stop-color="rgb(87.744141%, 40.699768%, 81.05011%)" offset="0.820312"/><stop stop-opacity="1" stop-color="rgb(88.009644%, 40.684509%, 80.960083%)" offset="0.824219"/><stop stop-opacity="1" stop-color="rgb(88.276672%, 40.66925%, 80.870056%)" offset="0.828125"/><stop stop-opacity="1" stop-color="rgb(88.543701%, 40.653992%, 80.778503%)" offset="0.832031"/><stop stop-opacity="1" stop-color="rgb(88.81073%, 40.638733%, 80.688477%)" offset="0.835938"/><stop stop-opacity="1" stop-color="rgb(89.076233%, 40.623474%, 80.59845%)" offset="0.839844"/><stop stop-opacity="1" stop-color="rgb(89.343262%, 40.608215%, 80.508423%)" offset="0.84375"/><stop stop-opacity="1" stop-color="rgb(89.608765%, 40.592957%, 80.418396%)" offset="0.847656"/><stop stop-opacity="1" stop-color="rgb(89.875793%, 40.577698%, 80.328369%)" offset="0.851563"/><stop stop-opacity="1" stop-color="rgb(90.141296%, 40.562439%, 80.238342%)" offset="0.855469"/><stop stop-opacity="1" stop-color="rgb(90.408325%, 40.54718%, 80.148315%)" offset="0.859375"/><stop stop-opacity="1" stop-color="rgb(90.673828%, 40.531921%, 80.056763%)" offset="0.863281"/><stop stop-opacity="1" stop-color="rgb(90.940857%, 40.516663%, 79.966736%)" offset="0.867187"/><stop stop-opacity="1" stop-color="rgb(91.207886%, 40.501404%, 79.876709%)" offset="0.871094"/><stop stop-opacity="1" stop-color="rgb(91.474915%, 40.486145%, 79.786682%)" offset="0.875"/><stop stop-opacity="1" stop-color="rgb(91.740417%, 40.470886%, 79.696655%)" offset="0.878906"/><stop stop-opacity="1" stop-color="rgb(92.007446%, 40.455627%, 79.606628%)" offset="0.882812"/><stop stop-opacity="1" stop-color="rgb(92.272949%, 40.440369%, 79.515076%)" offset="0.886719"/><stop stop-opacity="1" stop-color="rgb(92.539978%, 40.42511%, 79.425049%)" offset="0.890625"/><stop stop-opacity="1" stop-color="rgb(92.805481%, 40.409851%, 79.335022%)" offset="0.894531"/><stop stop-opacity="1" stop-color="rgb(93.07251%, 40.394592%, 79.244995%)" offset="0.898438"/><stop stop-opacity="1" stop-color="rgb(93.338013%, 40.379333%, 79.154968%)" offset="0.902344"/><stop stop-opacity="1" stop-color="rgb(93.605042%, 40.365601%, 79.064941%)" offset="0.90625"/><stop stop-opacity="1" stop-color="rgb(93.870544%, 40.350342%, 78.974915%)" offset="0.910156"/><stop stop-opacity="1" stop-color="rgb(94.137573%, 40.335083%, 78.884888%)" offset="0.914062"/><stop stop-opacity="1" stop-color="rgb(94.404602%, 40.319824%, 78.793335%)" offset="0.917969"/><stop stop-opacity="1" stop-color="rgb(94.671631%, 40.304565%, 78.703308%)" offset="0.921875"/><stop stop-opacity="1" stop-color="rgb(94.937134%, 40.289307%, 78.613281%)" offset="0.925781"/><stop stop-opacity="1" stop-color="rgb(95.204163%, 40.274048%, 78.523254%)" offset="0.929688"/><stop stop-opacity="1" stop-color="rgb(95.469666%, 40.258789%, 78.433228%)" offset="0.933594"/><stop stop-opacity="1" stop-color="rgb(95.736694%, 40.24353%, 78.343201%)" offset="0.9375"/><stop stop-opacity="1" stop-color="rgb(96.002197%, 40.228271%, 78.253174%)" offset="0.941406"/><stop stop-opacity="1" stop-color="rgb(96.269226%, 40.213013%, 78.163147%)" offset="0.945313"/><stop stop-opacity="1" stop-color="rgb(96.534729%, 40.197754%, 78.071594%)" offset="0.949219"/><stop stop-opacity="1" stop-color="rgb(96.801758%, 40.182495%, 77.981567%)" offset="0.953125"/><stop stop-opacity="1" stop-color="rgb(97.068787%, 40.167236%, 77.891541%)" offset="0.957031"/><stop stop-opacity="1" stop-color="rgb(97.335815%, 40.151978%, 77.801514%)" offset="0.960937"/><stop stop-opacity="1" stop-color="rgb(97.601318%, 40.136719%, 77.711487%)" offset="0.964844"/><stop stop-opacity="1" stop-color="rgb(97.868347%, 40.12146%, 77.62146%)" offset="0.96875"/><stop stop-opacity="1" stop-color="rgb(98.13385%, 40.106201%, 77.531433%)" offset="0.972656"/><stop stop-opacity="1" stop-color="rgb(98.400879%, 40.090942%, 77.441406%)" offset="0.976562"/><stop stop-opacity="1" stop-color="rgb(98.666382%, 40.075684%, 77.349854%)" offset="0.980469"/><stop stop-opacity="1" stop-color="rgb(98.933411%, 40.060425%, 77.259827%)" offset="0.984375"/><stop stop-opacity="1" stop-color="rgb(99.198914%, 40.045166%, 77.1698%)" offset="0.988281"/><stop stop-opacity="1" stop-color="rgb(99.465942%, 40.029907%, 77.079773%)" offset="0.992188"/><stop stop-opacity="1" stop-color="rgb(99.731445%, 40.014648%, 76.989746%)" offset="0.996094"/><stop stop-opacity="1" stop-color="rgb(99.998474%, 39.99939%, 76.899719%)" offset="1"/></linearGradient><clipPath id="565a1cea34"><path d="M 8.59375 0 L 43.1875 0 L 43.1875 34.597656 L 8.59375 34.597656 Z M 8.59375 0 " clip-rule="nonzero"/></clipPath><clipPath id="4c8e95a953"><path d="M 25.890625 0 C 16.335938 0 8.59375 7.746094 8.59375 17.296875 C 8.59375 26.851562 16.335938 34.597656 25.890625 34.597656 C 35.445312 34.597656 43.1875 26.851562 43.1875 17.296875 C 43.1875 7.746094 35.445312 0 25.890625 0 Z M 25.890625 0 " clip-rule="nonzero"/></clipPath><clipPath id="7a41d3b39c"><path d="M 15 8.277344 L 36.488281 8.277344 L 36.488281 26.097656 L 15 26.097656 Z M 15 8.277344 " clip-rule="nonzero"/></clipPath></defs><g clip-path="url(#02aace1e1a)"><g clip-path="url(#e99af0a83e)"><path fill="url(#161d105d28)" d="M 7.339844 0 L 7.339844 35.851562 L 43.191406 35.851562 L 43.191406 0 Z M 7.339844 0 " fill-rule="nonzero"/></g></g><g clip-path="url(#565a1cea34)"><g clip-path="url(#4c8e95a953)"><path stroke-linecap="butt" transform="matrix(0.7425, 0, 0, 0.7425, 8.593053, 0.00000000000015036)" fill="none" stroke-linejoin="miter" d="M 23.296395 -0.000000000000202505 C 10.428128 -0.000000000000202505 0.000938448 10.43245 0.000938448 23.295456 C 0.000938448 36.163723 10.428128 46.596174 23.296395 46.596174 C 36.164662 46.596174 46.591851 36.163723 46.591851 23.295456 C 46.591851 10.43245 36.164662 -0.000000000000202505 23.296395 -0.000000000000202505 Z M 23.296395 -0.000000000000202505 " stroke="#000000" stroke-width="8" stroke-opacity="1" stroke-miterlimit="4"/></g></g><g clip-path="url(#7a41d3b39c)"><path fill="#000000" d="M 26 8.363281 C 24.28125 8.304688 22.546875 8.773438 21.050781 9.777344 C 19.367188 10.90625 18.191406 12.570312 17.648438 14.433594 C 17.5 14.414062 17.320312 14.421875 17.109375 14.484375 C 16.3125 14.707031 15.71875 15.363281 15.449219 15.9375 C 15.101562 16.683594 14.953125 17.675781 15.109375 18.699219 C 15.261719 19.71875 15.691406 20.558594 16.230469 21.082031 C 16.765625 21.601562 17.375 21.773438 17.980469 21.644531 C 18.878906 21.453125 19.324219 21.308594 19.199219 20.46875 L 18.589844 16.390625 C 18.710938 14.1875 19.851562 12.109375 21.753906 10.835938 C 24.300781 9.125 27.640625 9.234375 30.074219 11.109375 C 31.761719 12.40625 32.746094 14.355469 32.859375 16.402344 L 32.433594 19.253906 C 31.480469 21.863281 29.125 23.671875 26.394531 23.929688 L 24.578125 23.929688 C 24.109375 23.929688 23.730469 24.308594 23.730469 24.777344 L 23.730469 25.222656 C 23.730469 25.695312 24.109375 26.074219 24.578125 26.074219 L 26.867188 26.074219 C 27.335938 26.074219 27.714844 25.695312 27.714844 25.222656 L 27.714844 24.992188 C 29.769531 24.488281 31.566406 23.21875 32.734375 21.449219 L 33.46875 21.644531 C 34.066406 21.800781 34.683594 21.601562 35.21875 21.082031 C 35.757812 20.558594 36.1875 19.71875 36.339844 18.699219 C 36.496094 17.675781 36.34375 16.6875 36 15.9375 C 35.65625 15.1875 35.140625 14.710938 34.546875 14.539062 C 34.296875 14.464844 34.027344 14.441406 33.796875 14.433594 C 33.304688 12.75 32.296875 11.21875 30.84375 10.101562 C 29.414062 9 27.714844 8.417969 26 8.363281 Z M 26 8.363281 " fill-opacity="1" fill-rule="evenodd"/></g><path fill="#000000" d="M 28.679688 15.691406 C 29.285156 15.691406 29.777344 16.1875 29.777344 16.792969 C 29.777344 17.402344 29.285156 17.894531 28.679688 17.894531 C 28.074219 17.894531 27.582031 17.402344 27.582031 16.792969 C 27.582031 16.1875 28.074219 15.691406 28.679688 15.691406 Z M 25.722656 15.691406 C 26.332031 15.691406 26.820312 16.1875 26.820312 16.792969 C 26.820312 17.402344 26.332031 17.894531 25.722656 17.894531 C 25.117188 17.894531 24.625 17.402344 24.625 16.792969 C 24.625 16.1875 25.117188 15.691406 25.722656 15.691406 Z M 22.769531 15.691406 C 23.375 15.691406 23.867188 16.1875 23.867188 16.792969 C 23.867188 17.402344 23.375 17.894531 22.769531 17.894531 C 22.164062 17.894531 21.671875 17.402344 21.671875 16.792969 C 21.671875 16.1875 22.164062 15.691406 22.769531 15.691406 Z M 25.722656 10.964844 C 22.503906 10.964844 19.910156 13.480469 19.910156 16.792969 C 19.910156 18.386719 20.511719 19.792969 21.488281 20.828125 L 21.140625 22.386719 C 21.027344 22.898438 21.382812 23.246094 21.84375 22.988281 L 23.359375 22.136719 C 24.082031 22.453125 24.878906 22.625 25.722656 22.625 C 28.945312 22.625 31.535156 20.109375 31.535156 16.792969 C 31.535156 13.480469 28.945312 10.964844 25.722656 10.964844 Z M 25.722656 10.964844 " fill-opacity="1" fill-rule="evenodd"/><g fill="#000000" fill-opacity="1"><g transform="translate(2.547829, 45.087156)"><g><path d="M 5.28125 1.515625 C 5.070312 1.515625 4.882812 1.484375 4.71875 1.421875 C 4.5625 1.367188 4.421875 1.300781 4.296875 1.21875 C 4.171875 1.132812 4.015625 1.019531 3.828125 0.875 C 3.671875 0.75 3.535156 0.640625 3.421875 0.546875 C 3.304688 0.460938 3.175781 0.382812 3.03125 0.3125 C 2.875 0.238281 2.6875 0.175781 2.46875 0.125 C 1.9375 0 1.546875 -0.15625 1.296875 -0.34375 C 1.003906 -0.570312 0.773438 -0.859375 0.609375 -1.203125 C 0.441406 -1.554688 0.359375 -1.929688 0.359375 -2.328125 C 0.359375 -2.859375 0.476562 -3.316406 0.71875 -3.703125 C 0.957031 -4.097656 1.265625 -4.398438 1.640625 -4.609375 C 2.015625 -4.828125 2.394531 -4.9375 2.78125 -4.9375 C 3.269531 -4.9375 3.695312 -4.820312 4.0625 -4.59375 C 4.4375 -4.363281 4.722656 -4.054688 4.921875 -3.671875 C 5.128906 -3.296875 5.234375 -2.894531 5.234375 -2.46875 C 5.234375 -1.894531 5.085938 -1.394531 4.796875 -0.96875 C 4.515625 -0.550781 4.140625 -0.25 3.671875 -0.0625 C 3.585938 -0.03125 3.484375 -0.0078125 3.359375 0 C 3.492188 0.0195312 3.617188 0.0546875 3.734375 0.109375 C 3.929688 0.203125 4.195312 0.375 4.53125 0.625 C 4.769531 0.800781 4.960938 0.929688 5.109375 1.015625 C 5.265625 1.097656 5.414062 1.140625 5.5625 1.140625 C 5.65625 1.128906 5.722656 1.097656 5.765625 1.046875 C 5.804688 1.003906 5.828125 0.945312 5.828125 0.875 C 5.828125 0.75 5.78125 0.632812 5.6875 0.53125 C 5.601562 0.425781 5.484375 0.375 5.328125 0.375 C 5.316406 0.289062 5.347656 0.207031 5.421875 0.125 C 5.503906 0.0507812 5.617188 0.015625 5.765625 0.015625 C 5.828125 0.015625 5.898438 0.0351562 5.984375 0.078125 C 6.066406 0.128906 6.140625 0.203125 6.203125 0.296875 C 6.273438 0.390625 6.3125 0.5 6.3125 0.625 C 6.3125 0.78125 6.257812 0.925781 6.15625 1.0625 C 6.050781 1.195312 5.914062 1.304688 5.75 1.390625 C 5.59375 1.472656 5.4375 1.515625 5.28125 1.515625 Z M 2.78125 -0.15625 C 3.113281 -0.15625 3.394531 -0.257812 3.625 -0.46875 C 3.863281 -0.675781 4.039062 -0.953125 4.15625 -1.296875 C 4.269531 -1.648438 4.328125 -2.039062 4.328125 -2.46875 C 4.328125 -2.851562 4.269531 -3.207031 4.15625 -3.53125 C 4.039062 -3.863281 3.863281 -4.125 3.625 -4.3125 C 3.394531 -4.507812 3.113281 -4.609375 2.78125 -4.609375 C 2.269531 -4.609375 1.890625 -4.394531 1.640625 -3.96875 C 1.390625 -3.539062 1.265625 -3 1.265625 -2.34375 C 1.265625 -1.957031 1.316406 -1.597656 1.421875 -1.265625 C 1.535156 -0.929688 1.707031 -0.660156 1.9375 -0.453125 C 2.164062 -0.253906 2.445312 -0.15625 2.78125 -0.15625 Z M 2.78125 -0.15625 "/></g></g></g><g fill="#000000" fill-opacity="1"><g transform="translate(8.132579, 45.087156)"><g><path d="M 2.71875 0.15625 C 2.332031 0.15625 2 0.0859375 1.71875 -0.046875 C 1.445312 -0.179688 1.238281 -0.359375 1.09375 -0.578125 C 0.957031 -0.804688 0.890625 -1.050781 0.890625 -1.3125 L 0.890625 -3.890625 C 0.878906 -4.015625 0.863281 -4.113281 0.84375 -4.1875 C 0.832031 -4.269531 0.789062 -4.335938 0.71875 -4.390625 C 0.644531 -4.453125 0.535156 -4.484375 0.390625 -4.484375 L 0.34375 -4.484375 C 0.289062 -4.484375 0.253906 -4.488281 0.234375 -4.5 C 0.222656 -4.519531 0.210938 -4.566406 0.203125 -4.640625 C 0.203125 -4.679688 0.210938 -4.71875 0.234375 -4.75 C 0.253906 -4.78125 0.289062 -4.796875 0.34375 -4.796875 C 0.664062 -4.785156 0.960938 -4.78125 1.234375 -4.78125 C 1.546875 -4.78125 1.863281 -4.785156 2.1875 -4.796875 C 2.226562 -4.796875 2.257812 -4.78125 2.28125 -4.75 C 2.300781 -4.71875 2.3125 -4.679688 2.3125 -4.640625 C 2.3125 -4.566406 2.300781 -4.519531 2.28125 -4.5 C 2.257812 -4.488281 2.222656 -4.484375 2.171875 -4.484375 C 2.003906 -4.484375 1.882812 -4.457031 1.8125 -4.40625 C 1.738281 -4.351562 1.691406 -4.285156 1.671875 -4.203125 C 1.648438 -4.128906 1.640625 -4.023438 1.640625 -3.890625 L 1.640625 -1.53125 C 1.640625 -1.1875 1.71875 -0.894531 1.875 -0.65625 C 2.039062 -0.414062 2.363281 -0.296875 2.84375 -0.296875 C 3.300781 -0.296875 3.628906 -0.398438 3.828125 -0.609375 C 4.023438 -0.828125 4.125 -1.097656 4.125 -1.421875 L 4.125 -3.421875 C 4.125 -3.765625 4.109375 -4.003906 4.078125 -4.140625 C 4.054688 -4.285156 4.003906 -4.378906 3.921875 -4.421875 C 3.847656 -4.460938 3.71875 -4.484375 3.53125 -4.484375 L 3.5 -4.484375 C 3.445312 -4.484375 3.410156 -4.488281 3.390625 -4.5 C 3.367188 -4.519531 3.351562 -4.566406 3.34375 -4.640625 C 3.34375 -4.679688 3.351562 -4.71875 3.375 -4.75 C 3.40625 -4.78125 3.441406 -4.796875 3.484375 -4.796875 C 3.816406 -4.785156 4.097656 -4.78125 4.328125 -4.78125 C 4.578125 -4.78125 4.863281 -4.785156 5.1875 -4.796875 C 5.226562 -4.796875 5.257812 -4.78125 5.28125 -4.75 C 5.300781 -4.71875 5.3125 -4.679688 5.3125 -4.640625 C 5.3125 -4.566406 5.300781 -4.519531 5.28125 -4.5 C 5.257812 -4.488281 5.222656 -4.484375 5.171875 -4.484375 C 4.960938 -4.484375 4.816406 -4.460938 4.734375 -4.421875 C 4.660156 -4.390625 4.609375 -4.304688 4.578125 -4.171875 C 4.554688 -4.035156 4.546875 -3.800781 4.546875 -3.46875 L 4.546875 -1.34375 C 4.546875 -1.007812 4.453125 -0.726562 4.265625 -0.5 C 4.078125 -0.28125 3.84375 -0.113281 3.5625 0 C 3.28125 0.101562 3 0.15625 2.71875 0.15625 Z M 2.71875 0.15625 "/></g></g></g><g fill="#000000" fill-opacity="1"><g transform="translate(13.58851, 45.087156)"><g><path d="M 0.453125 0.015625 C 0.410156 0.015625 0.375 0 0.34375 -0.03125 C 0.320312 -0.0625 0.3125 -0.0976562 0.3125 -0.140625 C 0.320312 -0.210938 0.335938 -0.253906 0.359375 -0.265625 C 0.390625 -0.285156 0.4375 -0.296875 0.5 -0.296875 C 0.65625 -0.296875 0.765625 -0.320312 0.828125 -0.375 C 0.898438 -0.4375 0.945312 -0.503906 0.96875 -0.578125 C 0.988281 -0.648438 1.003906 -0.753906 1.015625 -0.890625 L 1.015625 -3.890625 C 1.003906 -4.023438 0.988281 -4.128906 0.96875 -4.203125 C 0.945312 -4.273438 0.898438 -4.335938 0.828125 -4.390625 C 0.765625 -4.453125 0.65625 -4.484375 0.5 -4.484375 L 0.46875 -4.484375 C 0.414062 -4.484375 0.378906 -4.488281 0.359375 -4.5 C 0.335938 -4.519531 0.320312 -4.566406 0.3125 -4.640625 C 0.3125 -4.679688 0.320312 -4.71875 0.34375 -4.75 C 0.375 -4.78125 0.410156 -4.796875 0.453125 -4.796875 C 0.785156 -4.785156 1.085938 -4.78125 1.359375 -4.78125 C 1.660156 -4.78125 1.972656 -4.785156 2.296875 -4.796875 C 2.347656 -4.796875 2.382812 -4.78125 2.40625 -4.75 C 2.425781 -4.71875 2.4375 -4.679688 2.4375 -4.640625 C 2.4375 -4.566406 2.421875 -4.519531 2.390625 -4.5 C 2.359375 -4.488281 2.3125 -4.484375 2.25 -4.484375 C 2.09375 -4.484375 1.976562 -4.453125 1.90625 -4.390625 C 1.84375 -4.335938 1.800781 -4.269531 1.78125 -4.1875 C 1.769531 -4.113281 1.757812 -4.015625 1.75 -3.890625 L 1.75 -0.890625 C 1.757812 -0.765625 1.769531 -0.660156 1.78125 -0.578125 C 1.800781 -0.503906 1.84375 -0.4375 1.90625 -0.375 C 1.976562 -0.320312 2.09375 -0.296875 2.25 -0.296875 L 2.28125 -0.296875 C 2.332031 -0.296875 2.367188 -0.285156 2.390625 -0.265625 C 2.421875 -0.253906 2.4375 -0.210938 2.4375 -0.140625 C 2.4375 -0.0976562 2.425781 -0.0625 2.40625 -0.03125 C 2.382812 0 2.347656 0.015625 2.296875 0.015625 C 1.972656 0.00390625 1.660156 0 1.359375 0 C 1.085938 0 0.785156 0.00390625 0.453125 0.015625 Z M 0.453125 0.015625 "/></g></g></g><g fill="#000000" fill-opacity="1"><g transform="translate(16.346785, 45.087156)"><g><path d="M 2.71875 0.15625 C 2.28125 0.15625 1.882812 0.0507812 1.53125 -0.15625 C 1.175781 -0.363281 0.894531 -0.65625 0.6875 -1.03125 C 0.476562 -1.40625 0.375 -1.847656 0.375 -2.359375 C 0.375 -2.867188 0.472656 -3.316406 0.671875 -3.703125 C 0.878906 -4.097656 1.164062 -4.398438 1.53125 -4.609375 C 1.90625 -4.828125 2.34375 -4.9375 2.84375 -4.9375 C 3.28125 -4.9375 3.664062 -4.847656 4 -4.671875 C 4.34375 -4.492188 4.515625 -4.222656 4.515625 -3.859375 C 4.523438 -3.640625 4.457031 -3.445312 4.3125 -3.28125 C 4.164062 -3.125 3.976562 -3.046875 3.75 -3.046875 C 3.65625 -3.046875 3.578125 -3.0625 3.515625 -3.09375 C 3.453125 -3.125 3.40625 -3.160156 3.375 -3.203125 C 3.34375 -3.253906 3.328125 -3.289062 3.328125 -3.3125 C 3.328125 -3.320312 3.363281 -3.347656 3.4375 -3.390625 C 3.507812 -3.441406 3.570312 -3.507812 3.625 -3.59375 C 3.6875 -3.675781 3.71875 -3.773438 3.71875 -3.890625 C 3.71875 -4.117188 3.640625 -4.296875 3.484375 -4.421875 C 3.328125 -4.554688 3.113281 -4.625 2.84375 -4.625 C 2.53125 -4.625 2.253906 -4.535156 2.015625 -4.359375 C 1.773438 -4.191406 1.585938 -3.9375 1.453125 -3.59375 C 1.328125 -3.257812 1.265625 -2.863281 1.265625 -2.40625 C 1.265625 -2 1.332031 -1.628906 1.46875 -1.296875 C 1.613281 -0.960938 1.816406 -0.695312 2.078125 -0.5 C 2.347656 -0.3125 2.648438 -0.21875 2.984375 -0.21875 C 3.253906 -0.21875 3.488281 -0.273438 3.6875 -0.390625 C 3.882812 -0.503906 4.0625 -0.6875 4.21875 -0.9375 C 4.238281 -0.988281 4.269531 -1.015625 4.3125 -1.015625 C 4.351562 -1.015625 4.398438 -1 4.453125 -0.96875 C 4.535156 -0.90625 4.578125 -0.847656 4.578125 -0.796875 C 4.578125 -0.765625 4.566406 -0.738281 4.546875 -0.71875 C 4.359375 -0.476562 4.175781 -0.296875 4 -0.171875 C 3.832031 -0.046875 3.648438 0.0351562 3.453125 0.078125 C 3.253906 0.128906 3.007812 0.15625 2.71875 0.15625 Z M 2.71875 0.15625 "/></g></g></g><g fill="#000000" fill-opacity="1"><g transform="translate(21.188925, 45.087156)"><g><path d="M 0.46875 0.015625 C 0.414062 0.015625 0.378906 0 0.359375 -0.03125 C 0.335938 -0.0625 0.328125 -0.0976562 0.328125 -0.140625 C 0.328125 -0.210938 0.335938 -0.253906 0.359375 -0.265625 C 0.390625 -0.285156 0.441406 -0.296875 0.515625 -0.296875 C 0.660156 -0.296875 0.769531 -0.320312 0.84375 -0.375 C 0.914062 -0.4375 0.957031 -0.503906 0.96875 -0.578125 C 0.988281 -0.660156 1.003906 -0.765625 1.015625 -0.890625 L 1.015625 -3.890625 C 1.003906 -4.015625 0.988281 -4.113281 0.96875 -4.1875 C 0.957031 -4.269531 0.914062 -4.335938 0.84375 -4.390625 C 0.769531 -4.453125 0.660156 -4.484375 0.515625 -4.484375 L 0.46875 -4.484375 C 0.414062 -4.484375 0.378906 -4.488281 0.359375 -4.5 C 0.335938 -4.519531 0.328125 -4.566406 0.328125 -4.640625 C 0.328125 -4.679688 0.335938 -4.71875 0.359375 -4.75 C 0.378906 -4.78125 0.414062 -4.796875 0.46875 -4.796875 C 0.789062 -4.785156 1.085938 -4.78125 1.359375 -4.78125 C 1.660156 -4.78125 1.972656 -4.785156 2.296875 -4.796875 C 2.347656 -4.796875 2.382812 -4.78125 2.40625 -4.75 C 2.425781 -4.71875 2.4375 -4.679688 2.4375 -4.640625 C 2.4375 -4.566406 2.421875 -4.519531 2.390625 -4.5 C 2.367188 -4.488281 2.320312 -4.484375 2.25 -4.484375 C 2.101562 -4.484375 1.992188 -4.453125 1.921875 -4.390625 C 1.847656 -4.335938 1.800781 -4.269531 1.78125 -4.1875 C 1.769531 -4.113281 1.765625 -4.015625 1.765625 -3.890625 L 1.765625 -2.53125 C 1.835938 -2.539062 1.925781 -2.582031 2.03125 -2.65625 C 2.132812 -2.726562 2.257812 -2.828125 2.40625 -2.953125 C 2.6875 -3.210938 3.039062 -3.597656 3.46875 -4.109375 C 3.5625 -4.210938 3.609375 -4.289062 3.609375 -4.34375 C 3.609375 -4.425781 3.539062 -4.46875 3.40625 -4.46875 C 3.363281 -4.476562 3.335938 -4.492188 3.328125 -4.515625 C 3.316406 -4.535156 3.304688 -4.570312 3.296875 -4.625 C 3.296875 -4.675781 3.304688 -4.71875 3.328125 -4.75 C 3.359375 -4.78125 3.394531 -4.796875 3.4375 -4.796875 C 3.613281 -4.785156 3.890625 -4.78125 4.265625 -4.78125 C 4.390625 -4.78125 4.566406 -4.785156 4.796875 -4.796875 L 4.953125 -4.796875 C 5.003906 -4.796875 5.039062 -4.78125 5.0625 -4.75 C 5.082031 -4.71875 5.09375 -4.675781 5.09375 -4.625 C 5.09375 -4.5625 5.078125 -4.519531 5.046875 -4.5 C 5.023438 -4.476562 4.992188 -4.46875 4.953125 -4.46875 C 4.742188 -4.476562 4.550781 -4.445312 4.375 -4.375 C 4.195312 -4.300781 4.007812 -4.164062 3.8125 -3.96875 L 2.578125 -2.6875 C 2.753906 -2.46875 2.9375 -2.257812 3.125 -2.0625 C 3.3125 -1.863281 3.535156 -1.632812 3.796875 -1.375 C 3.929688 -1.238281 4.09375 -1.078125 4.28125 -0.890625 C 4.332031 -0.828125 4.367188 -0.785156 4.390625 -0.765625 C 4.546875 -0.597656 4.671875 -0.484375 4.765625 -0.421875 C 4.859375 -0.359375 4.972656 -0.316406 5.109375 -0.296875 C 5.117188 -0.296875 5.140625 -0.296875 5.171875 -0.296875 C 5.210938 -0.296875 5.242188 -0.28125 5.265625 -0.25 C 5.296875 -0.226562 5.3125 -0.191406 5.3125 -0.140625 C 5.3125 -0.0976562 5.296875 -0.0625 5.265625 -0.03125 C 5.242188 0 5.210938 0.015625 5.171875 0.015625 C 5.109375 0.015625 5.035156 0.015625 4.953125 0.015625 C 4.765625 0.00390625 4.625 0 4.53125 0 L 4.046875 0 C 3.367188 -0.738281 2.769531 -1.410156 2.25 -2.015625 C 2.09375 -2.203125 1.929688 -2.304688 1.765625 -2.328125 L 1.765625 -0.890625 C 1.765625 -0.765625 1.769531 -0.660156 1.78125 -0.578125 C 1.800781 -0.503906 1.847656 -0.4375 1.921875 -0.375 C 1.992188 -0.320312 2.101562 -0.296875 2.25 -0.296875 L 2.296875 -0.296875 C 2.347656 -0.296875 2.382812 -0.285156 2.40625 -0.265625 C 2.425781 -0.253906 2.4375 -0.210938 2.4375 -0.140625 C 2.4375 -0.0976562 2.425781 -0.0625 2.40625 -0.03125 C 2.382812 0 2.347656 0.015625 2.296875 0.015625 C 1.972656 0.00390625 1.660156 0 1.359375 0 C 1.085938 0 0.789062 0.00390625 0.46875 0.015625 Z M 0.46875 0.015625 "/></g></g></g><g fill="#000000" fill-opacity="1"><g transform="translate(26.493301, 45.087156)"><g/></g></g><g fill="#000000" fill-opacity="1"><g transform="translate(28.183125, 45.087156)"><g><path d="M 2.71875 0.15625 C 2.28125 0.15625 1.882812 0.0507812 1.53125 -0.15625 C 1.175781 -0.363281 0.894531 -0.65625 0.6875 -1.03125 C 0.476562 -1.40625 0.375 -1.847656 0.375 -2.359375 C 0.375 -2.867188 0.472656 -3.316406 0.671875 -3.703125 C 0.878906 -4.097656 1.164062 -4.398438 1.53125 -4.609375 C 1.90625 -4.828125 2.34375 -4.9375 2.84375 -4.9375 C 3.28125 -4.9375 3.664062 -4.847656 4 -4.671875 C 4.34375 -4.492188 4.515625 -4.222656 4.515625 -3.859375 C 4.523438 -3.640625 4.457031 -3.445312 4.3125 -3.28125 C 4.164062 -3.125 3.976562 -3.046875 3.75 -3.046875 C 3.65625 -3.046875 3.578125 -3.0625 3.515625 -3.09375 C 3.453125 -3.125 3.40625 -3.160156 3.375 -3.203125 C 3.34375 -3.253906 3.328125 -3.289062 3.328125 -3.3125 C 3.328125 -3.320312 3.363281 -3.347656 3.4375 -3.390625 C 3.507812 -3.441406 3.570312 -3.507812 3.625 -3.59375 C 3.6875 -3.675781 3.71875 -3.773438 3.71875 -3.890625 C 3.71875 -4.117188 3.640625 -4.296875 3.484375 -4.421875 C 3.328125 -4.554688 3.113281 -4.625 2.84375 -4.625 C 2.53125 -4.625 2.253906 -4.535156 2.015625 -4.359375 C 1.773438 -4.191406 1.585938 -3.9375 1.453125 -3.59375 C 1.328125 -3.257812 1.265625 -2.863281 1.265625 -2.40625 C 1.265625 -2 1.332031 -1.628906 1.46875 -1.296875 C 1.613281 -0.960938 1.816406 -0.695312 2.078125 -0.5 C 2.347656 -0.3125 2.648438 -0.21875 2.984375 -0.21875 C 3.253906 -0.21875 3.488281 -0.273438 3.6875 -0.390625 C 3.882812 -0.503906 4.0625 -0.6875 4.21875 -0.9375 C 4.238281 -0.988281 4.269531 -1.015625 4.3125 -1.015625 C 4.351562 -1.015625 4.398438 -1 4.453125 -0.96875 C 4.535156 -0.90625 4.578125 -0.847656 4.578125 -0.796875 C 4.578125 -0.765625 4.566406 -0.738281 4.546875 -0.71875 C 4.359375 -0.476562 4.175781 -0.296875 4 -0.171875 C 3.832031 -0.046875 3.648438 0.0351562 3.453125 0.078125 C 3.253906 0.128906 3.007812 0.15625 2.71875 0.15625 Z M 2.71875 0.15625 "/></g></g></g><g fill="#000000" fill-opacity="1"><g transform="translate(33.025264, 45.087156)"><g><path d="M 0.46875 0.015625 C 0.414062 0.015625 0.378906 0 0.359375 -0.03125 C 0.335938 -0.0625 0.328125 -0.0976562 0.328125 -0.140625 C 0.328125 -0.210938 0.335938 -0.253906 0.359375 -0.265625 C 0.390625 -0.285156 0.441406 -0.296875 0.515625 -0.296875 C 0.660156 -0.296875 0.769531 -0.320312 0.84375 -0.375 C 0.914062 -0.4375 0.957031 -0.503906 0.96875 -0.578125 C 0.988281 -0.660156 1.003906 -0.765625 1.015625 -0.890625 L 1.015625 -3.890625 C 1.003906 -4.015625 0.988281 -4.113281 0.96875 -4.1875 C 0.957031 -4.269531 0.914062 -4.335938 0.84375 -4.390625 C 0.769531 -4.453125 0.660156 -4.484375 0.515625 -4.484375 L 0.46875 -4.484375 C 0.414062 -4.484375 0.378906 -4.488281 0.359375 -4.5 C 0.335938 -4.519531 0.328125 -4.566406 0.328125 -4.640625 C 0.328125 -4.679688 0.335938 -4.71875 0.359375 -4.75 C 0.378906 -4.78125 0.414062 -4.796875 0.46875 -4.796875 C 0.789062 -4.785156 1.085938 -4.78125 1.359375 -4.78125 C 1.660156 -4.78125 1.972656 -4.785156 2.296875 -4.796875 C 2.347656 -4.796875 2.382812 -4.78125 2.40625 -4.75 C 2.425781 -4.71875 2.4375 -4.679688 2.4375 -4.640625 C 2.4375 -4.566406 2.421875 -4.519531 2.390625 -4.5 C 2.367188 -4.488281 2.320312 -4.484375 2.25 -4.484375 C 2.101562 -4.484375 1.992188 -4.453125 1.921875 -4.390625 C 1.847656 -4.335938 1.800781 -4.269531 1.78125 -4.1875 C 1.769531 -4.113281 1.765625 -4.015625 1.765625 -3.890625 L 1.765625 -2.546875 L 4.140625 -2.546875 L 4.140625 -3.890625 C 4.128906 -4.015625 4.113281 -4.113281 4.09375 -4.1875 C 4.082031 -4.269531 4.039062 -4.335938 3.96875 -4.390625 C 3.894531 -4.453125 3.785156 -4.484375 3.640625 -4.484375 L 3.59375 -4.484375 C 3.550781 -4.484375 3.515625 -4.488281 3.484375 -4.5 C 3.460938 -4.519531 3.453125 -4.566406 3.453125 -4.640625 C 3.453125 -4.679688 3.460938 -4.71875 3.484375 -4.75 C 3.515625 -4.78125 3.546875 -4.796875 3.578125 -4.796875 C 3.910156 -4.785156 4.226562 -4.78125 4.53125 -4.78125 C 4.8125 -4.78125 5.113281 -4.785156 5.4375 -4.796875 C 5.476562 -4.796875 5.507812 -4.78125 5.53125 -4.75 C 5.550781 -4.71875 5.5625 -4.679688 5.5625 -4.640625 C 5.5625 -4.566406 5.546875 -4.519531 5.515625 -4.5 C 5.492188 -4.488281 5.445312 -4.484375 5.375 -4.484375 C 5.226562 -4.484375 5.117188 -4.453125 5.046875 -4.390625 C 4.972656 -4.335938 4.925781 -4.269531 4.90625 -4.1875 C 4.894531 -4.113281 4.882812 -4.015625 4.875 -3.890625 L 4.875 -0.890625 C 4.882812 -0.765625 4.894531 -0.660156 4.90625 -0.578125 C 4.925781 -0.503906 4.972656 -0.4375 5.046875 -0.375 C 5.117188 -0.320312 5.226562 -0.296875 5.375 -0.296875 L 5.421875 -0.296875 C 5.472656 -0.296875 5.507812 -0.285156 5.53125 -0.265625 C 5.550781 -0.253906 5.5625 -0.210938 5.5625 -0.140625 C 5.5625 -0.0976562 5.550781 -0.0625 5.53125 -0.03125 C 5.507812 0 5.476562 0.015625 5.4375 0.015625 C 5.113281 0.00390625 4.8125 0 4.53125 0 C 4.226562 0 3.910156 0.00390625 3.578125 0.015625 C 3.546875 0.015625 3.515625 0 3.484375 -0.03125 C 3.460938 -0.0625 3.453125 -0.0976562 3.453125 -0.140625 C 3.453125 -0.210938 3.460938 -0.253906 3.484375 -0.265625 C 3.515625 -0.285156 3.566406 -0.296875 3.640625 -0.296875 C 3.785156 -0.296875 3.894531 -0.320312 3.96875 -0.375 C 4.039062 -0.4375 4.082031 -0.503906 4.09375 -0.578125 C 4.113281 -0.660156 4.128906 -0.765625 4.140625 -0.890625 L 4.140625 -2.234375 L 1.765625 -2.234375 L 1.765625 -0.890625 C 1.765625 -0.765625 1.769531 -0.660156 1.78125 -0.578125 C 1.800781 -0.503906 1.847656 -0.4375 1.921875 -0.375 C 1.992188 -0.320312 2.101562 -0.296875 2.25 -0.296875 L 2.296875 -0.296875 C 2.347656 -0.296875 2.382812 -0.285156 2.40625 -0.265625 C 2.425781 -0.253906 2.4375 -0.210938 2.4375 -0.140625 C 2.4375 -0.0976562 2.425781 -0.0625 2.40625 -0.03125 C 2.382812 0 2.347656 0.015625 2.296875 0.015625 C 1.972656 0.00390625 1.660156 0 1.359375 0 C 1.085938 0 0.789062 0.00390625 0.46875 0.015625 Z M 0.46875 0.015625 "/></g></g></g><g fill="#000000" fill-opacity="1"><g transform="translate(38.913123, 45.087156)"><g><path d="M 0.046875 0.015625 C 0.00390625 0.015625 -0.0234375 0 -0.046875 -0.03125 C -0.078125 -0.0625 -0.09375 -0.0976562 -0.09375 -0.140625 C -0.0820312 -0.210938 -0.0625 -0.253906 -0.03125 -0.265625 C -0.0078125 -0.285156 0.015625 -0.296875 0.046875 -0.296875 C 0.078125 -0.296875 0.0976562 -0.296875 0.109375 -0.296875 C 0.265625 -0.296875 0.375 -0.332031 0.4375 -0.40625 C 0.507812 -0.488281 0.566406 -0.578125 0.609375 -0.671875 C 0.660156 -0.773438 0.691406 -0.847656 0.703125 -0.890625 L 2.03125 -4.03125 C 2.0625 -4.101562 2.078125 -4.160156 2.078125 -4.203125 C 2.078125 -4.296875 2.039062 -4.363281 1.96875 -4.40625 C 1.894531 -4.445312 1.796875 -4.476562 1.671875 -4.5 C 1.585938 -4.519531 1.535156 -4.535156 1.515625 -4.546875 C 1.492188 -4.554688 1.484375 -4.597656 1.484375 -4.671875 C 1.484375 -4.734375 1.5 -4.773438 1.53125 -4.796875 C 1.5625 -4.816406 1.613281 -4.828125 1.6875 -4.828125 C 1.9375 -4.828125 2.132812 -4.804688 2.28125 -4.765625 C 2.4375 -4.734375 2.566406 -4.660156 2.671875 -4.546875 C 2.785156 -4.429688 2.894531 -4.257812 3 -4.03125 L 4.265625 -0.890625 C 4.335938 -0.691406 4.410156 -0.546875 4.484375 -0.453125 C 4.554688 -0.359375 4.660156 -0.304688 4.796875 -0.296875 L 4.84375 -0.296875 C 4.894531 -0.296875 4.929688 -0.285156 4.953125 -0.265625 C 4.972656 -0.253906 4.988281 -0.210938 5 -0.140625 C 5 -0.0976562 4.984375 -0.0625 4.953125 -0.03125 C 4.929688 0 4.898438 0.015625 4.859375 0.015625 C 4.535156 0.00390625 4.257812 0 4.03125 0 C 3.71875 0 3.398438 0.00390625 3.078125 0.015625 C 3.035156 0.015625 3.003906 0 2.984375 -0.03125 C 2.960938 -0.0625 2.953125 -0.0976562 2.953125 -0.140625 C 2.953125 -0.210938 2.960938 -0.253906 2.984375 -0.265625 C 3.003906 -0.285156 3.039062 -0.296875 3.09375 -0.296875 C 3.257812 -0.296875 3.378906 -0.3125 3.453125 -0.34375 C 3.523438 -0.382812 3.5625 -0.445312 3.5625 -0.53125 C 3.5625 -0.59375 3.53125 -0.710938 3.46875 -0.890625 L 3.21875 -1.515625 L 1.34375 -1.515625 C 1.21875 -1.203125 1.144531 -1.019531 1.125 -0.96875 C 1.101562 -0.914062 1.09375 -0.890625 1.09375 -0.890625 C 1.039062 -0.691406 1.015625 -0.566406 1.015625 -0.515625 C 1.015625 -0.429688 1.050781 -0.375 1.125 -0.34375 C 1.195312 -0.3125 1.335938 -0.296875 1.546875 -0.296875 L 1.59375 -0.296875 C 1.644531 -0.296875 1.679688 -0.285156 1.703125 -0.265625 C 1.722656 -0.253906 1.738281 -0.210938 1.75 -0.140625 C 1.75 -0.0976562 1.734375 -0.0625 1.703125 -0.03125 C 1.679688 0 1.648438 0.015625 1.609375 0.015625 C 1.285156 0.00390625 1.007812 0 0.78125 0 C 0.613281 0 0.367188 0.00390625 0.046875 0.015625 Z M 1.484375 -1.84375 L 3.078125 -1.84375 L 2.3125 -3.796875 L 2.28125 -3.796875 Z M 1.484375 -1.84375 "/></g></g></g><g fill="#000000" fill-opacity="1"><g transform="translate(43.861348, 45.087156)"><g><path d="M 1.359375 0.015625 C 1.304688 0.015625 1.269531 0 1.25 -0.03125 C 1.226562 -0.0625 1.21875 -0.0976562 1.21875 -0.140625 C 1.226562 -0.210938 1.242188 -0.253906 1.265625 -0.265625 C 1.285156 -0.285156 1.332031 -0.296875 1.40625 -0.296875 C 1.550781 -0.296875 1.660156 -0.320312 1.734375 -0.375 C 1.804688 -0.4375 1.847656 -0.503906 1.859375 -0.578125 C 1.878906 -0.660156 1.894531 -0.765625 1.90625 -0.890625 L 1.90625 -4.5 L 1.375 -4.5 C 1.207031 -4.5 1.078125 -4.460938 0.984375 -4.390625 C 0.890625 -4.328125 0.816406 -4.226562 0.765625 -4.09375 C 0.722656 -3.957031 0.679688 -3.765625 0.640625 -3.515625 C 0.640625 -3.472656 0.609375 -3.4375 0.546875 -3.40625 C 0.492188 -3.382812 0.4375 -3.375 0.375 -3.375 C 0.332031 -3.375 0.289062 -3.390625 0.25 -3.421875 C 0.21875 -3.453125 0.203125 -3.488281 0.203125 -3.53125 L 0.21875 -4.59375 C 0.21875 -4.71875 0.285156 -4.78125 0.421875 -4.78125 L 4.125 -4.78125 C 4.257812 -4.78125 4.328125 -4.71875 4.328125 -4.59375 L 4.359375 -3.53125 C 4.359375 -3.488281 4.335938 -3.453125 4.296875 -3.421875 C 4.253906 -3.390625 4.210938 -3.375 4.171875 -3.375 C 4.109375 -3.375 4.050781 -3.382812 4 -3.40625 C 3.945312 -3.4375 3.914062 -3.472656 3.90625 -3.515625 C 3.863281 -3.765625 3.820312 -3.957031 3.78125 -4.09375 C 3.738281 -4.226562 3.664062 -4.328125 3.5625 -4.390625 C 3.46875 -4.460938 3.335938 -4.5 3.171875 -4.5 L 2.65625 -4.5 L 2.65625 -0.890625 C 2.65625 -0.765625 2.664062 -0.660156 2.6875 -0.578125 C 2.707031 -0.503906 2.75 -0.4375 2.8125 -0.375 C 2.882812 -0.320312 2.992188 -0.296875 3.140625 -0.296875 L 3.1875 -0.296875 C 3.238281 -0.296875 3.273438 -0.285156 3.296875 -0.265625 C 3.316406 -0.253906 3.328125 -0.210938 3.328125 -0.140625 C 3.328125 -0.0976562 3.316406 -0.0625 3.296875 -0.03125 C 3.273438 0 3.242188 0.015625 3.203125 0.015625 C 2.878906 0.00390625 2.578125 0 2.296875 0 C 1.992188 0 1.679688 0.00390625 1.359375 0.015625 Z M 1.359375 0.015625 "/></g></g></g></svg>